<?xml version="1.0" encoding="utf-8"?>
<!-- Generator: Adobe Illustrator 24.2.1, SVG Export Plug-In . SVG Version: 6.00 Build 0)  -->
<svg version="1.1" id="Layer_1" xmlns="http://www.w3.org/2000/svg" xmlns:xlink="http://www.w3.org/1999/xlink" x="0px" y="0px"
	 viewBox="0 0 64 64" style="enable-background:new 0 0 64 64;" xml:space="preserve">
<style type="text/css">
	.st0{fill:#FFFFFF;}
	.st1{clip-path:url(#SVGID_2_);}
	.st2{fill:#E21E2D;}
</style>
<g id="Group_95" transform="translate(-31.903 -31.398)">
	<path id="Path_1" class="st0" d="M39.5,95c-1.4,0-2.5-1-2.6-2.4l-4.6-58c-0.1-1.4,1-2.7,2.4-2.8c0.1,0,0.1,0,0.2,0h58
		c1.4,0,2.6,1.2,2.6,2.6c0,0.1,0,0.1,0,0.2l-4.6,58C90.8,94,89.7,95,88.3,95L39.5,95z"/>
	<path id="Path_2" d="M92.9,31.4h-58c-1.7,0-3,1.3-3,3c0,0.1,0,0.2,0,0.2l4.6,58c0.1,1.6,1.4,2.7,3,2.8h48.8c1.6,0,2.9-1.2,3-2.8
		l4.6-58c0.1-1.6-1.1-3.1-2.8-3.2C93.1,31.4,93,31.4,92.9,31.4 M92.9,32.2c1.2,0,2.2,1,2.2,2.2c0,0.1,0,0.1,0,0.2l-4.6,58
		c-0.1,1.2-1.1,2-2.2,2H39.5c-1.2,0-2.1-0.9-2.2-2l-4.6-58c-0.1-1.2,0.8-2.3,2-2.4c0.1,0,0.1,0,0.2,0L92.9,32.2z"/>
	<g id="Group_2" transform="translate(60.039 59.092)">
		<g>
			<defs>
				<path id="SVGID_1_" d="M-24.7-25.3c-0.6,0-1.1,0.5-1.1,1.1c0,0,0,0.1,0,0.1l4.6,57.5c0,0.3,0.3,0.6,0.6,0.6h48.8
					c0.3,0,0.6-0.3,0.6-0.6l4.6-57.5c0-0.6-0.4-1.1-1-1.2c0,0-0.1,0-0.1,0H-24.7z"/>
			</defs>
			<clipPath id="SVGID_2_">
				<use xlink:href="#SVGID_1_"  style="overflow:visible;"/>
			</clipPath>
			<g id="Group_1" transform="translate(0 0)" class="st1">
				<rect id="Rectangle_1" x="-27.4" y="-26.6" class="st2" width="15.6" height="43.9"/>
				<rect id="Rectangle_2" x="19.5" y="-26.6" class="st2" width="15.6" height="43.9"/>
			</g>
		</g>
	</g>
	<path id="Path_3" d="M56.3,60.4c0,0.8,0.5,2.9,3.2,4.9c1.1,0.8,1.7,1.2,1.8,1.3l0,0c0.1,0.1-0.4,0-0.5,0.1c-0.2,0-0.9,0-1.5,0.1
		c-0.5,0.1-0.5,0.2-0.5,0.6c0,0.3,0,0.8,0,1.2c0,0.4,0,0.7,0.1,0.9c0.2,0.2,0.3,0.2,1,0.2c0.7,0,2.6,0,2.8-0.1
		c0.3-0.1,0.2,0,0.1,0.4c-0.3,0.6-1.2,3.4-2.7,6.1c-0.2,0.4,0.4,0.2,0.9,0.4c0.9,0.4,0.9,0.5,1.1,0.1c0.3-0.5,1.5-3.5,1.7-4.4
		c0-0.1,0.1-0.2,0.1,0c0,0.1,0,3.9-0.1,5.1c0,0.1,0,0.1,0.1,0.2c0.1,0.1,0.2,0.1,0.2,0.1h0c0.4-0.1,1-0.3,1.4-0.2c0,0,0.1,0,0.1,0
		c0,0,0,0,0.1-0.1c0-0.1,0.1-0.1,0.1-0.2c0,0,0,0,0,0c0-0.1,0-0.2,0.1-0.3c0-0.1,0-0.1,0-0.2c0-0.1,0-0.2,0-0.2c0-0.1,0-0.2,0-0.3
		c0-0.1,0-0.2,0-0.3c0-0.1,0-0.2,0-0.4c0-0.1,0-0.1,0-0.2c0-0.1,0-0.3,0-0.4c0-0.2,0-0.3,0-0.5c0-0.2,0-0.3,0-0.5c0-0.2,0-0.3,0-0.5
		c0-0.2,0-0.3,0-0.5c0-0.2,0-0.3-0.1-0.5c0-0.2,0-0.3-0.1-0.5c0-0.2-0.1-0.3-0.1-0.5c0-0.2-0.1-0.2-0.1-0.4c0-0.2-0.1-0.3-0.1-0.5
		c0-0.1-0.1-0.3-0.1-0.4c0-0.1-0.1-0.2-0.1-0.3c0-0.1,0-0.1,0-0.2c0-0.1,0.1,0,0.2,0c0,0,0,0,0.1,0c0.5-0.1,1.3,0,1.5,0
		c0.2,0,1.2,0.1,1.4,0.1c0.3,0,0.6,0.1,0.6-0.7c0-0.2,0-0.3,0-0.5c0,0,0-0.1,0-0.1c0-0.1,0-0.1,0-0.1c0,0,0-0.1,0-0.1
		c0,0,0-0.1,0-0.1c0,0,0,0,0-0.1c0,0,0-0.1,0-0.1c0,0,0,0,0,0c0,0,0-0.1,0-0.1c0,0,0,0,0,0c0,0,0,0,0-0.1c0,0,0,0,0,0
		c0,0,0-0.1,0-0.1c0-0.2,0-0.6-0.4-0.7c-0.4-0.1-1.2-0.1-1.9-0.1c-0.1,0-0.1,0-0.1,0l0,0c0.8-0.5,1.6-1,2.3-1.7
		c1.3-1.1,1.9-1.7,2.2-2.5c0,0,1.4-2.6,1.3-4.9c0-0.4,0.1-0.4,0.3-0.4c0.1,0,0.4,0,0.6-0.1c0.6-0.1,1.1-2.1,1.1-2.1s0.9-3,1.1-4.2
		c0.2-1.1,0.1-1.7-0.5-2l-0.1-0.1c-0.1,0-0.1-0.1-0.1-0.1c0,0,0-0.1,0-0.1c0.3-1.1,0.9-2.5,0.8-3.1c0-0.2-0.2-0.2-0.2-0.3
		c-0.2-0.1-0.3-0.3-0.4-0.5c0,0,0-0.1,0-0.1c-0.2-2.1-1-4.8-3.2-7.1c0,0-0.2-0.1-0.3-0.2c-0.2-0.2-0.4-0.4-0.7-0.6
		c-0.7-0.5-1.4-0.9-2.1-1.3c-0.6-0.3-1.3-0.5-1.9-0.6c-0.1,0-0.2-0.1-0.3-0.1c-0.2,0-0.4-0.1-0.7-0.1c-0.7-0.1-1.5-0.2-2.2-0.1l0,0
		c-0.1,0-0.2,0-0.2,0c0,0-0.1,0-0.1,0c-0.1,0-0.1,0-0.2,0c-0.2,0-0.4,0-0.6,0.1c-0.4,0.1-0.8,0.1-1,0.2c-0.3,0.1-0.6,0.1-1.1,0.3
		c-0.2,0.1-0.4,0.1-0.6,0.2c-0.1,0-0.1,0-0.2,0.1c-0.2,0.1-0.4,0.1-0.6,0.2c-0.2,0.1-0.8,0.3-0.9,0.4c-0.1,0-0.2,0.1-0.3,0.1
		c-0.5,0.1-0.6,0.4-0.6,0.5c0,0.1,0,0.2-0.1,0.3c-0.7,1.4-2.2,1.5-2.8,1.5c-0.2,0-0.3,0-0.3,0.2c0.1,0.4,0.9,1.1,1.3,1.3
		c0,0.1-0.4,0.1-0.5,0.2c-0.2,0-0.9,0-0.9,0c0,0,0,0,0,0c-0.8,0.1-1.1,0.6-1.2,0.9c0,0.1,0,0.2,0,0.2c0.2,0.3,0.4,0.5,0.5,0.9
		c0,0,0,0,0,0c0,0.1,0.1,0.2,0.1,0.3c0,0.2,0.1,0.3,0,0.6c-0.3,0.5-1,0.7-1.1,1.2c-0.2,0.8,0.1,1.3,0.4,2.5c0.2,0.9,0.4,1.8,0.6,2.2
		c0,0,0,0,0,0c0,0,0,0,0,0c-0.1,0-0.2,0-0.2,0c-0.4,0.2-0.5,0.5-0.6,1.1c-0.1,1.4,0.9,3.5,1.2,5.3c0.1,0.6,0.4,1.6,0.9,2
		c0.1,0.1,0.3,0.2,0.5,0.2c0.4,0.1,0.5-0.2,0.6,0.2c0,0.1,0,0.3,0,0.4C55.6,59.1,56.3,60.4,56.3,60.4 M57,38.6
		c0.1-0.2,0.3-0.3,0.5-0.4c0.2-0.1,1.2-0.9,2.2-1.2c0.2-0.1,0.2-0.1,0.3-0.1c0.1,0,0.3-0.3,0-0.4c-0.2,0-0.4,0-0.6,0
		c-0.2,0-0.2-0.1-0.1-0.2c0.1-0.1,0.3-0.3,0.7-0.4c0.8-0.3,2.3-0.5,3-0.6c0.9-0.1,1-0.1,1.6,0c0.4,0,0.8,0.1,1.2,0.2
		c1,0.2,2.2,0.7,3.3,1.2c0.6,0.3,1.1,0.7,1.6,1.1c1.5,1.2,3.3,3.4,3,8.1c0,0.3-0.1,0.7-0.1,1c0,0.1-0.2,0.4-0.3,0.1
		c-0.3-1-0.7-2.8-1.6-4.2c-0.1-0.2-0.3-0.2-0.3,0c0,0.1,0.1,1,0,1.2c-0.1,1.2,0.2,0.7,0.7,1.9c0.2,0.5,0.3,1.1,0.4,1.6
		c0,0.1,0,0.3,0,0.4c0,0.2-0.1,0.2-0.1,0.2c-0.4,0-1-0.2-1.3-0.2c-0.4,0-3.1,0-4.1,0c-1,0.1-1.6,0.4-2.1,0.9
		c-0.1,0.1-0.2,0.1-0.3,0.2c0,0-0.1,0-0.1,0c0,0-0.1,0-0.2,0c-0.3-0.1-0.5-0.1-0.8,0c-0.2,0.1-0.4,0.1-0.6,0
		c-0.4-0.2-0.9-1.1-2.9-1.1c-1.1,0-2.6,0-3.5,0c-0.3,0-0.4,0-0.5,0c0,0,0-0.1,0-0.1c0-1.6,1-1.2,1.1-1.6c0.3-1,0.4-3.4,2.2-4.9
		c0.9-0.7,1.3-0.7,2.1-0.7c0.9,0,1.7,0.2,2.1,0.4c0.3,0.2,0.5,0.3,0.6,0.2c0.1-0.1,0.5-0.4,0.6-0.5c0.1-0.1,0.1-0.3,0-0.4
		c-0.1-0.1-1.4-1.7-3.3-2c-0.4-0.1-0.8-0.1-1.2-0.1c-0.3,0-0.6,0-0.9,0.1c-0.7,0.1-1.7,0.5-2.3,0.7C56.8,38.8,56.9,38.6,57,38.6
		 M72.3,48.7c-0.1,0.1-0.2,0-0.3,0.1c-0.1,0-0.2,0.1-0.3,0.1c-0.1,0-0.2-0.1-0.2-0.3c0,0,0-0.1,0-0.1c0.2-0.2,0.4,0,0.6,0
		c0.1,0,0.1,0,0.2,0C72.3,48.5,72.4,48.6,72.3,48.7 M69.6,49.5c0,0-0.4-0.2-0.5-0.4c-0.1-0.1,0-0.2,0.1-0.2c0.5,0,1,0,1.3,0.2
		c0.2,0.1,0.2,0.4,0.1,0.6c-0.1,0.2-0.3,0.2-0.4,0.1S69.6,49.5,69.6,49.5 M69.9,50.4c-0.1,0-0.5-0.1-0.6-0.1
		c-0.2-0.1-0.4-0.3-0.6-0.4c-0.2-0.2-0.5-0.2-0.8-0.2c-0.2,0-0.5,0.1-0.7,0.1c-0.2,0-0.2-0.1-0.1-0.2c0.1-0.1,0.3-0.3,0.9-0.4
		c0.1,0,0.2,0,0.3,0c0.3,0,0.5,0.2,0.7,0.4c0.3,0.3,0.5,0.5,0.8,0.7C69.9,50.2,70.1,50.3,69.9,50.4 M61.7,54.3
		c0.1,0.1,0.1,0.2,0.1,0.4c0,0.1-0.3,0.2-0.6-0.2c-0.2-0.3-0.2-0.8,0-1.1c0.3-0.3,0.6-0.1,0.6,0C61.6,53.7,61.6,54,61.7,54.3
		 M57.9,49.8c0.1-0.1,0.1-0.1,0.3-0.2c0.2-0.1,0.3-0.2,0.5-0.3c0.3-0.2,0.9-0.4,1.2-0.4c0.2,0,0.5,0.1,0.7,0.3
		c0.2,0.2,0.2,0.4,0,0.4c-0.3-0.1-0.6-0.1-0.9,0c-0.5,0.1-0.9,0.3-1.1,0.4c-0.2,0.1-0.4,0.1-0.6,0.1C57.9,50.2,57.7,50,57.9,49.8
		 M57.6,49.4c-0.2,0.2-0.5,0.3-0.7,0.4c-0.2,0.1-0.5,0-0.4-0.3c0-0.1,0.3-0.5,0.6-0.6c0,0,0.2,0,0.4-0.1c0.2,0,0.4,0,0.5,0
		c0.3,0,0.3,0.2,0.1,0.3C57.9,49.2,57.7,49.3,57.6,49.4 M53.5,44.4c0.2-0.6,0.6-1.1,0.9-1.4c0.2-0.3,0.1-0.7,0-1.1
		c-0.1-0.3-0.3-0.7-0.3-0.8c0-0.1,0-0.1,0-0.2c0,0,0,0,0,0l0.5,0c1.3-0.2,2.5-0.6,2.9-0.8c0.2-0.1,0.4-0.2,0.6-0.2
		c0.2-0.1,0.5-0.1,0.7-0.2c0.2,0,0.4-0.1,0.6-0.1c0.3,0,0.7,0.2,0.6,0.2c-0.2,0.1-1.3,0.4-2.2,1.4c-0.6,0.7-0.7,1.1-0.9,1.4
		c-0.2,0.3-0.3,0.4-0.6,0.6c-0.2,0.2-0.4,0.4-0.5,0.7c-0.1,0.4-0.6,1.7-0.7,3.7c0,0.2,0,0.5-0.3,0.6l0,0c-0.2,0.1-0.3,0.2-0.4,0.1
		c-0.1-0.5-0.4-1.4-0.5-2c0-0.2-0.1-0.4-0.1-0.6C53.5,45.1,53.4,44.7,53.5,44.4 M54.6,54.1c-0.4-0.3-0.4-0.6-0.5-0.9
		c-0.2-0.7-0.4-1.5-0.6-2.2c-0.1-0.4-0.1-1.4,0.4-1.4c0.3,0,0.5,0.1,0.6,0.4c0.2,0.6-0.2,0.5-0.1,1.2c0.1,0.5,0.2,1,0.3,1.9
		C54.9,53.5,55,54.4,54.6,54.1 M56.1,48.8c-0.1,0-0.2-0.1-0.3-0.1c-0.2,0-0.2,0-0.3-0.1c-0.1-0.1,0-0.2,0-0.2c0.1,0,0.1,0,0.2,0
		c0.2,0,0.4-0.2,0.6,0c0.1,0.1,0,0.3-0.1,0.3C56.2,48.8,56.1,48.8,56.1,48.8 M56.4,53c-0.1-0.2,0-0.6,0.6-0.2
		c0.2,0.1,0.4,0.2,0.6,0.2c0.2,0,0.3,0,0.3-0.1c0-0.1,0.2-0.4-0.1-0.5c-0.2-0.1-0.8-0.2-1.2-1c0-0.1,0-0.3,0.1-0.4
		c0.1,0,0.2,0,0.3,0.1c0.1,0.1,0.3,0.3,0.6,0.3c0.2,0,0.2-0.1,0.3-0.1c0.2-0.2,0.6-0.9,1.6-0.7c0.4,0,0.8,0.1,0.9,0.1
		c0.2,0,0.4,0,0.6,0c0.3-0.1,0.7-0.1,0.5,0.1c-0.2,0.2-0.3,0.3-0.2,0.5c0,0,0,0,0,0c0.1,0.2,0.1,0.4,0,0.6l0,0
		c-0.2,0.3-0.7,0.6-1.6,0.6c-0.4,0-0.4,0-0.5,0.2c0,0.1,0,0.1,0,0.2c0,0.1,0.1,0.2,0.4,0.2c0.2,0,0.4,0,0.6,0c0.1,0,0.2,0,0.1,0.1
		c0,0,0,0.1-0.1,0.1c-0.2,0.2-0.3,0.4-0.3,0.6c0,0.1-0.1,0.2-0.2,0.3l0,0c-0.1,0.1-0.7,0.2-1.1,0.5c-0.4,0.3-1.3,0.6-1.7,0.2
		C56.8,54.7,56.5,53.7,56.4,53 M60.3,63c-0.8,0-2.7-1.2-3.6-4.5c-0.2-0.9,0.3-1.6,0.7-1.7c0.1,0,0.2-0.1,0.4-0.1
		c0.1,0,0.4,0,0.4,0.4c0,0.3,0.3,2.9,0.9,3.8c0.2,0.2,0.3,0.2,0.4,0c0.1-0.2,0.2-0.4,0.2-0.5c0-0.1,0.3-0.4,0.4-0.2
		c0.2,0.6,0.5,1.9,0.7,2.2C61.1,63,60.6,63,60.3,63 M60.8,57.6c-1,0-1.4-0.4-1.5-0.5c-0.1-0.1,0-0.2,0.1-0.2
		c0.3-0.1,0.6-0.2,0.8-0.4c0.2-0.1,0.6-0.4,0.9-0.6c0.1-0.1,0.7-0.3,1.1-0.1c0.6,0.4,1.1,0.6,2,0.6c0.6,0,0.6-0.5,1.1-0.7
		c0.2-0.1,0.5-0.2,0.7-0.3c0.2,0,0.3-0.1,0.5,0.1c0.3,0.2,0.3,0.4,0.6,0.7c0.4,0.4,0.8,0.6,1,0.7c0.1,0,0.2,0.1,0.2,0.2
		s-0.1,0.2-0.5,0.3c-1.3,0.4-2.8,0.1-3.5-0.2c-0.4-0.1-0.7-0.2-1.2,0C62.9,57.4,61.7,57.6,60.8,57.6 M65.8,58.4
		c-0.4,0.1-0.8,0.2-1.2,0.3c-0.3,0-1.3,0.1-1.5,0.1c-0.3,0-0.5-0.1-0.7-0.3c0,0-0.1-0.2,0.1-0.2c0.3,0,0.9-0.2,3,0
		c0.2,0,0.3,0,0.4,0C65.9,58.2,66,58.3,65.8,58.4 M74.5,50.6c-0.3,1.4-0.6,2.1-0.8,3c-0.2,0.9-0.6,2.2-1,2.2c-0.4,0.1-0.5-0.3-0.8,0
		c-0.1,0.2-0.3,0.4-0.4,0.6c-0.1,0.1-0.2,0.3-0.2,0.5c0,0.7-0.1,1.4-0.2,2.1c-0.3,1.6-1,2.8-1.6,3.5c-1.3,1.4-2.4,1.7-2.6,1.7
		c-0.2,0.1-0.5,0-0.5,0c-0.1,0-0.2-0.1-0.3-0.3c-0.2-0.1-0.2,0.1-0.2,0.1c0,0.1,0.1,0.7-0.1,1c-0.4,0.7-0.7,0.7-0.9,1.5
		c-0.1,0.3,0,0.7-0.4,0.5c-0.8-0.5-2-1.7-2.2-2.9c-0.1-0.4,0-0.8,0.2-1.5c0.1-0.4,0.2-0.9,0.2-1.1c0-0.5-0.2-0.9,0-0.9
		c0.3-0.1,0.5,0.8,0.7,0.7c0.3-0.2,0.1-1.1,0.1-1.1s-0.1-0.3-0.6-0.4c-0.3-0.1-0.4-0.3-0.1-0.4c0.2-0.1,0.5-0.2,0.8-0.2
		c2,0.3,2.6-0.1,3.4-0.3c0.2,0,0.3-0.1,0.4,0c0.1,0.1,0.5,0.2,0.5,0.4c0.1,0.2,0,0.8,0.1,1.3c0.1,0.5,0.5,0,0.6-0.2
		c0.1-0.2,0.2-0.7,0.2-0.8c0-0.1,0.1-0.6,0.3-0.8c0.3-0.2,0.5-0.5,0.6-0.9c0.1-0.2,0.2-0.6,0.1-1.3c0-0.7-0.1-0.8-0.3-0.9
		c-0.2-0.1-0.4-0.1-0.8-0.5c-0.4-0.3-0.7-0.9-1-1.3c-0.3-0.4-0.7-0.7-1.3-0.9c-0.5-0.1-0.3,0.4-0.3,0.5c0,0.1,0.1,0.5,0,0.7
		c-0.2,0.1-1.2,0.8-2.2,0.6c-1.1-0.3-1.5-0.9-1.5-1.5c0-0.4,0.2-0.8,0.4-1.3c0.2-0.3,0.2-0.8,0.3-1.2c0-0.4,0.1-0.9,0.2-1.1
		c0.1-0.1,0.2-0.3,0.5-0.3c0.3,0,0.5,0.2,0.6,0.4c0.2,0.9,0.5,1.1,0.6,1.2s0.3-0.1,0.4-0.1c0.1-0.1,0.3-0.3,0.2-0.4
		c-0.1-0.1-0.1-0.2-0.2-0.4c0-0.2,0.2-0.1,0.2-0.1c0.4,0.3,0.7,0.3,1.3,0.4c1.1,0.2,1.2-0.2,2-0.1c0.1,0,0.3,0.1,0.3,0.2
		c0,0.1,0.1,0.3,0.2,0.3c0.1,0,0.3,0.1,0.4,0.1c0.2,0,0.4,0,0.4,0.3c-0.1,0.8-1,1-1.4,1c-0.2,0-0.3,0-0.3,0.1
		c-0.1,0.1-0.1,0.3,0,0.5c0.1,0.1,0.4,0.1,0.9,0c0.5-0.1,1-0.4,1.3-0.9c0.4-0.6,0.6-1.9,0.6-2.1c0-0.2,0.1-0.7,0.3-0.7
		c0.1-0.1,0.8-0.3,0.9-0.3c0.1,0,0.2,0.1,0.2,0.3c0,0.2,0,1.7,0,1.9c0,0.2,0.1,0.2,0.2,0.2c0.1-0.1,0.5-0.3,0.6-0.6
		c0.1-0.2-0.1-0.5,0-0.8c0.1-0.5,0.3-0.6,0.4-0.6C74.5,49.6,74.6,49.9,74.5,50.6 M83,80c0.2,0,0.3,0.2,0.2,0.4l-0.6,2.8
		c0,0.1-0.2,0.2-0.3,0.2h-0.9c-0.2,0-0.3-0.1-0.3-0.3c0,0,0,0,0,0c0,0,0-0.1,0-0.1c0-0.9-0.5-1.6-1.9-1.6c-2.2,0-3.8,1.8-4,4.1
		c-0.2,2.4,1.5,3.8,3.9,3.8c0.9,0,1.8-0.1,2.7-0.4c0.2-0.1,0.3,0,0.4,0.2c0,0,0,0.1,0,0.1L82,90.8c0,0.1-0.1,0.2-0.2,0.3
		c-0.5,0.2-1.9,0.5-3.9,0.5c-5,0-7-2.8-6.7-5.7c0.3-2.6,2-6.3,8.8-6.3C80.9,79.6,82,79.7,83,80 M55.1,80c0-0.1,0.2-0.2,0.3-0.2h4.9
		c0.2,0,0.3,0.1,0.3,0.3c0,0,0,0,0,0.1l-0.2,0.7c0,0.1-0.1,0.2-0.3,0.2c0,0,0,0,0,0c-0.4,0-1,0.2-1.6,0.6L54.4,85v0l3.1,4.2
		c0.6,0.8,0.9,0.9,1.5,0.9c0.2,0,0.3,0.1,0.3,0.3c0,0,0,0,0,0.1l-0.2,0.7c0,0.1-0.1,0.2-0.3,0.2h-2.4c-2.7,0-3.4-1.2-5.7-5.2
		c0,0,0,0,0,0c0,0,0,0,0,0l-0.7,2.9c-0.1,0.5,0.3,0.7,0.6,0.8l0,0c0.1,0.1,0.2,0.2,0.2,0.3l-0.2,0.9c0,0.1-0.2,0.2-0.3,0.2h-5.6
		c-0.2,0-0.3-0.1-0.3-0.3c0,0,0,0,0-0.1l0.2-0.7c0-0.1,0.1-0.2,0.3-0.2c0,0,0,0,0,0c0.5-0.1,1.1-0.4,1.4-2l1.3-5.8
		c0.2-0.8-0.2-1.1-0.6-1.2c0,0,0,0-0.1,0c-0.2-0.1-0.2-0.2-0.2-0.4L47,80c0-0.1,0.2-0.2,0.3-0.2h5.4c0.2,0,0.3,0.1,0.3,0.3
		c0,0,0,0,0,0.1l-0.2,0.8c0,0.1-0.1,0.2-0.2,0.2l0,0c-0.4,0.1-0.7,0.4-0.8,0.8l-0.7,3.2c0,0,0,0,0,0c0,0,0,0,0,0l4.2-3.4
		c0.2-0.2,0.2-0.5-0.1-0.6l0,0c-0.2,0-0.3-0.2-0.2-0.4L55.1,80 M70.1,83.2c-0.2,0-0.3-0.1-0.3-0.3c0,0,0,0,0,0c0,0,0,0,0,0
		c0-0.7-0.2-1.2-1-1.2l-2.6,0l-0.7,3.1h3.7c0.2,0,0.3,0.1,0.3,0.3c0,0,0,0,0,0.1l-0.4,1.6c0,0.1-0.2,0.2-0.3,0.2H65
		c0,0-0.4,1.9-0.4,2c-0.1,0.6,0.3,0.9,0.6,1.1c0,0,0,0,0,0c0.1,0.1,0.2,0.2,0.2,0.3l-0.2,0.9c0,0.1-0.2,0.2-0.3,0.2h-4.5
		c-0.2,0-0.3-0.1-0.3-0.3c0,0,0,0,0-0.1l2-8.7c0.2-0.8-0.3-1.1-0.6-1.2c0,0,0,0,0,0c-0.1,0-0.2-0.2-0.2-0.4l0.2-0.8
		c0-0.1,0.2-0.3,0.3-0.2h10c0.2,0,0.3,0.1,0.3,0.3c0,0,0,0,0,0.1L71.3,83c0,0.1-0.2,0.2-0.3,0.2L70.1,83.2"/>
</g>
</svg>
