<?xml version="1.0" encoding="utf-8"?>
<!-- Generator: Adobe Illustrator 24.3.0, SVG Export Plug-In . SVG Version: 6.00 Build 0)  -->
<svg version="1.1" id="Layer_1" xmlns="http://www.w3.org/2000/svg" xmlns:xlink="http://www.w3.org/1999/xlink" x="0px" y="0px"
	 viewBox="0 0 280 246" style="enable-background:new 0 0 280 246;" xml:space="preserve">
<style type="text/css">
	.st0{fill:#989898;}
	.st1{fill:#231F20;}
	.st2{fill:none;stroke:#989898;stroke-width:10;stroke-linecap:round;stroke-linejoin:round;stroke-miterlimit:10;}
</style>
<g>
	<g>
		<path class="st0" d="M83.4,61.3c-1.6-1.1-3.8-0.7-4.9,0.8c-0.2,0.3-0.4,0.6-0.6,0.9c-1.1,1.6-0.7,3.8,0.9,4.9
			c0.6,0.4,1.3,0.6,2,0.6c1.1,0,2.2-0.5,2.9-1.5c0.2-0.3,0.4-0.5,0.5-0.8C85.4,64.6,85,62.5,83.4,61.3z"/>
		<path class="st0" d="M71.7,84.4c-1.9-0.4-3.8,0.8-4.2,2.7c-0.1,0.3-0.1,0.7-0.2,1c-0.4,1.9,0.8,3.7,2.7,4.1c0.2,0,0.5,0.1,0.7,0.1
			c1.6,0,3.1-1.1,3.4-2.8c0.1-0.3,0.1-0.6,0.2-0.9C74.8,86.7,73.6,84.8,71.7,84.4z"/>
		<path class="st0" d="M87.5,51.8c-0.3,0.2-0.5,0.5-0.8,0.7c-1.4,1.3-1.4,3.6-0.1,4.9c0.7,0.7,1.6,1.1,2.5,1.1c0.9,0,1.8-0.3,2.4-1
			c0.2-0.2,0.5-0.4,0.7-0.7c1.4-1.3,1.5-3.5,0.1-4.9C91.1,50.6,88.9,50.5,87.5,51.8z"/>
		<path class="st0" d="M69.6,97.2c-1.9,0-3.5,1.5-3.6,3.4c0,0.4,0,0.7,0,1.1c0,1.9,1.6,3.5,3.5,3.5s3.5-1.6,3.5-3.5
			c0-0.3,0-0.6,0-0.9C73,98.8,71.5,97.2,69.6,97.2z"/>
		<path class="st0" d="M76.4,72.3c-1.8-0.8-3.8,0-4.6,1.8c-0.1,0.3-0.3,0.6-0.4,1c-0.8,1.8,0.1,3.8,1.9,4.6c0.4,0.2,0.9,0.3,1.4,0.3
			c1.4,0,2.7-0.8,3.2-2.1c0.1-0.3,0.2-0.6,0.4-0.9C79,75.1,78.2,73.1,76.4,72.3z"/>
		<path class="st0" d="M127.8,36.9c-0.3-1.9-2.1-3.2-4-2.9c-0.3,0.1-0.7,0.1-1,0.2c-1.9,0.3-3.2,2.1-2.9,4c0.3,1.7,1.8,2.9,3.4,2.9
			c0.2,0,0.4,0,0.6-0.1c0.3-0.1,0.6-0.1,0.9-0.2C126.8,40.6,128.1,38.8,127.8,36.9z"/>
		<path class="st0" d="M110.6,37.4c-0.3,0.1-0.7,0.2-1,0.4c-1.8,0.7-2.7,2.7-2,4.5c0.5,1.4,1.9,2.2,3.3,2.2c0.4,0,0.9-0.1,1.3-0.2
			c0.3-0.1,0.6-0.2,0.9-0.3c1.8-0.7,2.7-2.7,2-4.5S112.4,36.8,110.6,37.4z"/>
		<path class="st0" d="M98.3,43.5c-0.3,0.2-0.6,0.4-0.9,0.6c-1.6,1-2.1,3.2-1,4.8c0.7,1,1.8,1.6,2.9,1.6c0.7,0,1.3-0.2,1.9-0.6
			c0.3-0.2,0.5-0.3,0.8-0.5c1.6-1,2.1-3.2,1.1-4.8C102.1,43,100,42.5,98.3,43.5z"/>
		<path class="st0" d="M141.7,33.1l-11-9c-1.5-1.2-3.7-1-4.9,0.5c-1.2,1.5-1,3.7,0.5,4.9l8.3,6.8l-6.8,8.3c-1.2,1.5-1,3.7,0.5,4.9
			c0.7,0.5,1.4,0.8,2.2,0.8c1,0,2-0.4,2.7-1.3l9-11c0.6-0.7,0.9-1.6,0.8-2.6S142.4,33.7,141.7,33.1z"/>
	</g>
	<path class="st1" d="M199.5,122.6h-98.1c-0.1-2.7-2.3-4.9-5-4.9H72.4c-2.7,0-4.9,2.2-5,4.9H22.9c-10,0-18.1,8.1-18.1,18.1v78.5
		c0,10,8.1,18.1,18.1,18.1h17.5c0.3,2.4,2.4,4.3,4.9,4.3h16.1c2.5,0,4.6-1.9,4.9-4.3h5.1c0.3,2.4,2.4,4.3,4.9,4.3h16.1
		c2.5,0,4.6-1.9,4.9-4.3h5.1c0.3,2.4,2.4,4.3,4.9,4.3h16.1c2.5,0,4.6-1.9,4.9-4.3h71.1c10,0,18.1-8.1,18.1-18.1v-78.5
		C217.6,130.7,209.5,122.6,199.5,122.6z M207.6,219.2c0,4.5-3.7,8.1-8.1,8.1H22.9c-4.5,0-8.1-3.7-8.1-8.1V204h3.1
		c5.1,0,9.1-4.1,9.1-9.1V165c0-5.1-4.1-9.1-9.1-9.1h-3.1v-15.2c0-4.5,3.7-8.1,8.1-8.1h176.5c4.5,0,8.1,3.7,8.1,8.1V219.2z"/>
	<g>
		<path class="st2" d="M156.2,122.9"/>
		<path class="st0" d="M270.3,66.9V22.4c0-10-8.1-18.1-18.1-18.1h-78.5c-10,0-18.1,8.1-18.1,18.1v17.5c-2.4,0.3-4.3,2.4-4.3,4.9
			v16.1c0,2.5,1.9,4.6,4.3,4.9v5.1c-2.4,0.3-4.3,2.4-4.3,4.9v16.1c0,2.5,1.9,4.6,4.3,4.9V109c0,2.8,2.2,5,5,5s5-2.2,5-5V22.4
			c0-4.5,3.7-8.1,8.1-8.1h15.2v3.1c0,5.1,4.1,9.1,9.1,9.1h29.9c5.1,0,9.1-4.1,9.1-9.1v-3.1h15.2c4.5,0,8.1,3.7,8.1,8.1V199
			c0,4.5-3.7,8.1-8.1,8.1h-21.6c-2.8,0-5,2.2-5,5s2.2,5,5,5h21.6c10,0,18.1-8.1,18.1-18.1v-98.1c2.7-0.1,4.9-2.3,4.9-5V71.9
			C275.2,69.1,273,67,270.3,66.9z"/>
	</g>
</g>
</svg>
